<mxfile host="Electron" agent="Mozilla/5.0 (Windows NT 10.0; Win64; x64) AppleWebKit/537.36 (KHTML, like Gecko) draw.io/26.2.2 Chrome/134.0.6998.178 Electron/35.1.2 Safari/537.36" version="26.2.2">
  <diagram name="Page-1" id="4fSIZPG5lg-2ZHqw876N">
    <mxGraphModel dx="1030" dy="619" grid="1" gridSize="10" guides="1" tooltips="1" connect="1" arrows="1" fold="1" page="1" pageScale="1" pageWidth="1100" pageHeight="850" math="0" shadow="0">
      <root>
        <mxCell id="0" />
        <mxCell id="1" parent="0" />
        <mxCell id="QtmNZMd3GUs6CpPFPNzS-2" value="" style="rounded=0;whiteSpace=wrap;html=1;fillColor=none;dashed=1;" parent="1" vertex="1">
          <mxGeometry x="720" y="195" width="120" height="495" as="geometry" />
        </mxCell>
        <mxCell id="QtmNZMd3GUs6CpPFPNzS-5" value="" style="rounded=0;whiteSpace=wrap;html=1;fillColor=none;dashed=1;" parent="1" vertex="1">
          <mxGeometry x="220" y="190" width="480" height="500" as="geometry" />
        </mxCell>
        <mxCell id="QtmNZMd3GUs6CpPFPNzS-34" value="BRONZE" style="rounded=0;whiteSpace=wrap;html=1;fillColor=none;fontColor=#000000;strokeColor=#BD7000;" parent="1" vertex="1">
          <mxGeometry x="240.5" y="237.5" width="129.5" height="412.5" as="geometry" />
        </mxCell>
        <mxCell id="QtmNZMd3GUs6CpPFPNzS-7" value="" style="rounded=0;whiteSpace=wrap;html=1;fillColor=none;dashed=1;" parent="1" vertex="1">
          <mxGeometry x="40" y="190" width="140" height="500" as="geometry" />
        </mxCell>
        <mxCell id="QtmNZMd3GUs6CpPFPNzS-1" value="&lt;font style=&quot;font-size: 26px;&quot;&gt;High Level Architecture&lt;/font&gt;" style="text;html=1;align=center;verticalAlign=middle;whiteSpace=wrap;rounded=0;" parent="1" vertex="1">
          <mxGeometry x="10" y="10" width="320" height="60" as="geometry" />
        </mxCell>
        <mxCell id="QtmNZMd3GUs6CpPFPNzS-3" value="CONSUMERS" style="rounded=0;whiteSpace=wrap;html=1;fillColor=none;dashed=1;strokeColor=none;labelBackgroundColor=default;" parent="1" vertex="1">
          <mxGeometry x="720" y="165" width="120" height="60" as="geometry" />
        </mxCell>
        <mxCell id="QtmNZMd3GUs6CpPFPNzS-6" value="DATA WAREHOUSE" style="rounded=0;whiteSpace=wrap;html=1;fillColor=none;dashed=1;strokeColor=none;labelBackgroundColor=default;" parent="1" vertex="1">
          <mxGeometry x="220" y="160" width="480" height="60" as="geometry" />
        </mxCell>
        <mxCell id="QtmNZMd3GUs6CpPFPNzS-8" value="SOURCES" style="rounded=0;whiteSpace=wrap;html=1;fillColor=none;dashed=1;strokeColor=none;labelBackgroundColor=default;" parent="1" vertex="1">
          <mxGeometry x="50" y="160" width="120" height="60" as="geometry" />
        </mxCell>
        <mxCell id="QtmNZMd3GUs6CpPFPNzS-9" value="" style="rounded=0;whiteSpace=wrap;html=1;fillColor=none;strokeColor=#CCCCCC;" parent="1" vertex="1">
          <mxGeometry x="400" y="235" width="120" height="415" as="geometry" />
        </mxCell>
        <mxCell id="QtmNZMd3GUs6CpPFPNzS-10" value="SILVER" style="rounded=0;whiteSpace=wrap;html=1;fillColor=#bac8d3;strokeColor=#23445d;fontStyle=1" parent="1" vertex="1">
          <mxGeometry x="400" y="205" width="120" height="20" as="geometry" />
        </mxCell>
        <mxCell id="QtmNZMd3GUs6CpPFPNzS-12" value="BRONZE" style="rounded=0;whiteSpace=wrap;html=1;fillColor=#f0a30a;fontColor=#000000;strokeColor=#BD7000;fontStyle=1" parent="1" vertex="1">
          <mxGeometry x="240" y="205" width="120" height="20" as="geometry" />
        </mxCell>
        <mxCell id="QtmNZMd3GUs6CpPFPNzS-13" value="" style="rounded=0;whiteSpace=wrap;html=1;fillColor=none;strokeColor=#FFD966;" parent="1" vertex="1">
          <mxGeometry x="560" y="235" width="120" height="415" as="geometry" />
        </mxCell>
        <mxCell id="QtmNZMd3GUs6CpPFPNzS-14" value="GOLD" style="rounded=0;whiteSpace=wrap;html=1;fillColor=#ffff88;strokeColor=#36393d;fontStyle=1;fontColor=#000000;" parent="1" vertex="1">
          <mxGeometry x="560" y="205" width="120" height="20" as="geometry" />
        </mxCell>
        <mxCell id="QtmNZMd3GUs6CpPFPNzS-16" value="" style="image;aspect=fixed;html=1;points=[];align=center;fontSize=12;image=img/lib/azure2/general/File.svg;" parent="1" vertex="1">
          <mxGeometry x="107.77" y="279" width="32.46" height="40" as="geometry" />
        </mxCell>
        <mxCell id="QtmNZMd3GUs6CpPFPNzS-17" value="CRM" style="text;html=1;align=center;verticalAlign=middle;whiteSpace=wrap;rounded=0;" parent="1" vertex="1">
          <mxGeometry x="90" y="321.5" width="60" height="27.5" as="geometry" />
        </mxCell>
        <mxCell id="QtmNZMd3GUs6CpPFPNzS-15" value="" style="image;aspect=fixed;html=1;points=[];align=center;fontSize=12;image=img/lib/azure2/general/Folder_Blank.svg;" parent="1" vertex="1">
          <mxGeometry x="90" y="269" width="36.96" height="30" as="geometry" />
        </mxCell>
        <mxCell id="QtmNZMd3GUs6CpPFPNzS-19" value="" style="image;aspect=fixed;html=1;points=[];align=center;fontSize=12;image=img/lib/azure2/general/File.svg;" parent="1" vertex="1">
          <mxGeometry x="107.77" y="379" width="32.46" height="40" as="geometry" />
        </mxCell>
        <mxCell id="QtmNZMd3GUs6CpPFPNzS-20" value="ERP" style="text;html=1;align=center;verticalAlign=middle;whiteSpace=wrap;rounded=0;" parent="1" vertex="1">
          <mxGeometry x="90" y="419" width="60" height="30" as="geometry" />
        </mxCell>
        <mxCell id="QtmNZMd3GUs6CpPFPNzS-21" value="" style="image;aspect=fixed;html=1;points=[];align=center;fontSize=12;image=img/lib/azure2/general/Folder_Blank.svg;" parent="1" vertex="1">
          <mxGeometry x="90" y="369" width="36.96" height="30" as="geometry" />
        </mxCell>
        <mxCell id="QtmNZMd3GUs6CpPFPNzS-23" value="" style="endArrow=none;html=1;rounded=0;" parent="1" edge="1">
          <mxGeometry width="50" height="50" relative="1" as="geometry">
            <mxPoint x="86" y="474" as="sourcePoint" />
            <mxPoint x="166" y="474" as="targetPoint" />
          </mxGeometry>
        </mxCell>
        <mxCell id="QtmNZMd3GUs6CpPFPNzS-24" value="&lt;b&gt;Object Type: &lt;/b&gt;CSV&lt;div&gt;&lt;b&gt;Interface: &lt;/b&gt;Files&amp;nbsp; in Folder&lt;/div&gt;" style="text;html=1;align=center;verticalAlign=middle;whiteSpace=wrap;rounded=0;" parent="1" vertex="1">
          <mxGeometry x="50" y="484" width="120" height="110" as="geometry" />
        </mxCell>
        <mxCell id="QtmNZMd3GUs6CpPFPNzS-25" value="" style="html=1;verticalLabelPosition=bottom;align=center;labelBackgroundColor=#ffffff;verticalAlign=top;strokeWidth=2;strokeColor=#0080F0;shadow=0;dashed=0;shape=mxgraph.ios7.icons.data;fillColor=#FDFDFD;" parent="1" vertex="1">
          <mxGeometry x="439" y="260" width="42" height="50" as="geometry" />
        </mxCell>
        <mxCell id="QtmNZMd3GUs6CpPFPNzS-26" value="" style="html=1;verticalLabelPosition=bottom;align=center;labelBackgroundColor=#ffffff;verticalAlign=top;strokeWidth=2;strokeColor=#0080F0;shadow=0;dashed=0;shape=mxgraph.ios7.icons.data;fillColor=#FFD966;" parent="1" vertex="1">
          <mxGeometry x="599" y="260" width="42" height="50" as="geometry" />
        </mxCell>
        <mxCell id="QtmNZMd3GUs6CpPFPNzS-27" value="" style="html=1;verticalLabelPosition=bottom;align=center;labelBackgroundColor=#ffffff;verticalAlign=top;strokeWidth=2;strokeColor=#36393d;shadow=0;dashed=0;shape=mxgraph.ios7.icons.data;fillColor=#ffcc99;" parent="1" vertex="1">
          <mxGeometry x="280" y="260" width="42" height="50" as="geometry" />
        </mxCell>
        <mxCell id="QtmNZMd3GUs6CpPFPNzS-31" value="&lt;div&gt;&lt;span style=&quot;font-size: 8px;&quot;&gt;Object Type: Views&lt;/span&gt;&lt;/div&gt;&lt;span style=&quot;font-size: 8px;&quot;&gt;No Load&lt;/span&gt;&lt;br&gt;&lt;div&gt;&lt;div&gt;&lt;font style=&quot;font-size: 8px;&quot;&gt;Transformations:&lt;/font&gt;&lt;/div&gt;&lt;/div&gt;&lt;div&gt;&lt;ul&gt;&lt;li&gt;&lt;font style=&quot;font-size: 8px;&quot;&gt;Data integration&lt;/font&gt;&lt;/li&gt;&lt;li&gt;&lt;font style=&quot;font-size: 8px;&quot;&gt;Aggregation&lt;/font&gt;&lt;/li&gt;&lt;li&gt;&lt;font style=&quot;font-size: 8px;&quot;&gt;Business Logic&lt;/font&gt;&lt;/li&gt;&lt;/ul&gt;&lt;/div&gt;&lt;div&gt;&lt;font style=&quot;font-size: 8px;&quot;&gt;&lt;br&gt;&lt;/font&gt;&lt;/div&gt;&lt;div&gt;&lt;font style=&quot;font-size: 8px;&quot;&gt;Data Model:&amp;nbsp;&lt;/font&gt;&lt;/div&gt;&lt;div&gt;&lt;ul&gt;&lt;li&gt;&lt;font style=&quot;font-size: 8px;&quot;&gt;Star Schema&lt;/font&gt;&lt;/li&gt;&lt;li&gt;&lt;font style=&quot;font-size: 8px;&quot;&gt;Flat Table&lt;/font&gt;&lt;/li&gt;&lt;li&gt;&lt;font style=&quot;font-size: 8px;&quot;&gt;Aggregated Table&lt;/font&gt;&lt;/li&gt;&lt;/ul&gt;&lt;/div&gt;" style="text;html=1;align=left;verticalAlign=middle;whiteSpace=wrap;rounded=0;" parent="1" vertex="1">
          <mxGeometry x="565" y="460" width="110" height="77" as="geometry" />
        </mxCell>
        <mxCell id="QtmNZMd3GUs6CpPFPNzS-32" value="Cleaned, Standardized, Data" style="text;html=1;align=center;verticalAlign=middle;whiteSpace=wrap;rounded=0;" parent="1" vertex="1">
          <mxGeometry x="420.5" y="330" width="79" height="30" as="geometry" />
        </mxCell>
        <mxCell id="QtmNZMd3GUs6CpPFPNzS-33" value="Business Ready Data" style="text;html=1;align=center;verticalAlign=middle;whiteSpace=wrap;rounded=0;" parent="1" vertex="1">
          <mxGeometry x="580.5" y="330" width="79" height="30" as="geometry" />
        </mxCell>
        <mxCell id="QtmNZMd3GUs6CpPFPNzS-35" value="Raw data" style="text;html=1;align=center;verticalAlign=middle;whiteSpace=wrap;rounded=0;" parent="1" vertex="1">
          <mxGeometry x="261.5" y="330" width="79" height="30" as="geometry" />
        </mxCell>
        <mxCell id="QtmNZMd3GUs6CpPFPNzS-36" value="&lt;font style=&quot;font-size: 8px;&quot;&gt;Load:&amp;nbsp;&lt;/font&gt;&lt;div&gt;&lt;ul&gt;&lt;li&gt;&lt;font style=&quot;font-size: 8px;&quot;&gt;Batch processing&lt;/font&gt;&lt;/li&gt;&lt;li style=&quot;&quot;&gt;&lt;font style=&quot;font-size: 8px;&quot;&gt;Full load&lt;/font&gt;&lt;/li&gt;&lt;li&gt;&lt;font style=&quot;font-size: 8px;&quot;&gt;Truncate &amp;amp; Insert&lt;/font&gt;&lt;/li&gt;&lt;/ul&gt;&lt;div&gt;&lt;font style=&quot;font-size: 8px;&quot;&gt;Transformations&lt;/font&gt;&lt;/div&gt;&lt;/div&gt;&lt;div&gt;&lt;font style=&quot;font-size: 8px;&quot;&gt;&lt;br&gt;&lt;/font&gt;&lt;/div&gt;&lt;div&gt;&lt;font style=&quot;font-size: 8px;&quot;&gt;Data Model: As Is&lt;/font&gt;&lt;/div&gt;" style="text;html=1;align=left;verticalAlign=middle;whiteSpace=wrap;rounded=0;" parent="1" vertex="1">
          <mxGeometry x="250" y="401.5" width="110" height="77" as="geometry" />
        </mxCell>
        <mxCell id="QtmNZMd3GUs6CpPFPNzS-37" value="&lt;font style=&quot;font-size: 8px;&quot;&gt;Load:&amp;nbsp;&lt;/font&gt;&lt;div&gt;&lt;ul&gt;&lt;li&gt;&lt;font style=&quot;font-size: 8px;&quot;&gt;Batch processing&lt;/font&gt;&lt;/li&gt;&lt;li style=&quot;&quot;&gt;&lt;font style=&quot;font-size: 8px;&quot;&gt;Full load&lt;/font&gt;&lt;/li&gt;&lt;li&gt;&lt;font style=&quot;font-size: 8px;&quot;&gt;Truncate &amp;amp; Insert&lt;/font&gt;&lt;/li&gt;&lt;/ul&gt;&lt;div&gt;&lt;font style=&quot;font-size: 8px;&quot;&gt;Transformations:&lt;/font&gt;&lt;/div&gt;&lt;/div&gt;&lt;div&gt;&lt;ul&gt;&lt;li&gt;&lt;font style=&quot;font-size: 8px;&quot;&gt;Data Cleansing&lt;/font&gt;&lt;/li&gt;&lt;li&gt;&lt;font style=&quot;font-size: 8px;&quot;&gt;Data Standardization&lt;/font&gt;&lt;/li&gt;&lt;li&gt;&lt;font style=&quot;font-size: 8px;&quot;&gt;Data Normalization&lt;/font&gt;&lt;/li&gt;&lt;li&gt;&lt;font style=&quot;font-size: 8px;&quot;&gt;Derived COlumns&lt;/font&gt;&lt;/li&gt;&lt;li&gt;&lt;font style=&quot;font-size: 8px;&quot;&gt;Data Enrichment&lt;/font&gt;&lt;/li&gt;&lt;/ul&gt;&lt;/div&gt;&lt;div&gt;&lt;font style=&quot;font-size: 8px;&quot;&gt;&lt;br&gt;&lt;/font&gt;&lt;/div&gt;&lt;div&gt;&lt;font style=&quot;font-size: 8px;&quot;&gt;Data Model: As Is&lt;/font&gt;&lt;/div&gt;" style="text;html=1;align=left;verticalAlign=middle;whiteSpace=wrap;rounded=0;" parent="1" vertex="1">
          <mxGeometry x="405" y="460" width="110" height="77" as="geometry" />
        </mxCell>
        <mxCell id="QtmNZMd3GUs6CpPFPNzS-38" value="" style="image;aspect=fixed;html=1;points=[];align=center;fontSize=12;image=img/lib/azure2/analytics/Power_BI_Embedded.svg;" parent="1" vertex="1">
          <mxGeometry x="755" y="269" width="51" height="68" as="geometry" />
        </mxCell>
        <mxCell id="YtGtf792GrAuijWJoewH-2" value="ML" style="text;html=1;align=center;verticalAlign=middle;whiteSpace=wrap;rounded=0;" vertex="1" parent="1">
          <mxGeometry x="750.5" y="468" width="60" height="30" as="geometry" />
        </mxCell>
        <mxCell id="YtGtf792GrAuijWJoewH-3" value="" style="points=[];aspect=fixed;html=1;align=center;shadow=0;dashed=0;fillColor=#FF6A00;strokeColor=none;shape=mxgraph.alibaba_cloud.machine_learning;" vertex="1" parent="1">
          <mxGeometry x="755.6" y="410" width="49.8" height="50.099999999999994" as="geometry" />
        </mxCell>
        <mxCell id="YtGtf792GrAuijWJoewH-4" value="Power BI" style="text;html=1;align=center;verticalAlign=middle;whiteSpace=wrap;rounded=0;" vertex="1" parent="1">
          <mxGeometry x="749.9" y="360" width="60" height="30" as="geometry" />
        </mxCell>
        <mxCell id="YtGtf792GrAuijWJoewH-5" value="" style="shape=flexArrow;endArrow=classic;html=1;rounded=0;entryX=0;entryY=0.5;entryDx=0;entryDy=0;endWidth=37;endSize=9.27;width=10;" edge="1" parent="1">
          <mxGeometry width="50" height="50" relative="1" as="geometry">
            <mxPoint x="690" y="425" as="sourcePoint" />
            <mxPoint x="730" y="425" as="targetPoint" />
          </mxGeometry>
        </mxCell>
        <mxCell id="YtGtf792GrAuijWJoewH-6" value="" style="shape=flexArrow;endArrow=classic;html=1;rounded=0;entryX=0;entryY=0.5;entryDx=0;entryDy=0;endWidth=37;endSize=9.27;width=10;" edge="1" parent="1">
          <mxGeometry width="50" height="50" relative="1" as="geometry">
            <mxPoint x="180" y="425" as="sourcePoint" />
            <mxPoint x="220" y="425" as="targetPoint" />
          </mxGeometry>
        </mxCell>
      </root>
    </mxGraphModel>
  </diagram>
</mxfile>
